<?xml version="1.0" encoding="utf-8"?>
<!-- Generator: Adobe Illustrator 27.1.1, SVG Export Plug-In . SVG Version: 6.00 Build 0)  -->
<svg version="1.1" id="Layer_1" xmlns="http://www.w3.org/2000/svg" xmlns:xlink="http://www.w3.org/1999/xlink" x="0px" y="0px"
	 viewBox="0 0 2500 2448" style="enable-background:new 0 0 2500 2448;" xml:space="preserve">
<style type="text/css">
	.st0{fill:url(#SVGID_1_);}
	.st1{fill:url(#SVGID_00000124134527875470419540000007899813748567945098_);}
</style>
<linearGradient id="SVGID_1_" gradientUnits="userSpaceOnUse" x1="207.9253" y1="-168.7233" x2="-261.7467" y2="300.9487" gradientTransform="matrix(5.2166 0 0 5.2166 1402.3201 867.1794)">
	<stop  offset="0" style="stop-color:#FFAA2A"/>
	<stop  offset="1" style="stop-color:#FFC06C"/>
</linearGradient>
<path class="st0" d="M0,0h2500V2448H0V0z"/>
<linearGradient id="SVGID_00000021100402714382127630000009713083146730866818_" gradientUnits="userSpaceOnUse" x1="-28.8957" y1="-259.6065" x2="-28.8957" y2="348.034" gradientTransform="matrix(5.2166 0 0 5.2166 1402.3201 867.1794)">
	<stop  offset="0" style="stop-color:#251200"/>
	<stop  offset="1" style="stop-color:#000000"/>
</linearGradient>
<path style="fill:url(#SVGID_00000021100402714382127630000009713083146730866818_);" d="M912,1246.2h221.6l-110.8-429.7L912,1246.2
	z M-384.2-481.7v3180.5h3271.6V-481.7H-384.2z M1255.2,1717.4l-81.1-279.3h-300l-81.1,279.3H587.7l289.2-987.3V622h275.7
	l329.7,1095.4H1255.2z M1801.1,1717.4h-221.6V884.1h221.6V1717.4z M1691.6,784.1c-63.4,0-114.9-50.8-114.9-113.5
	c0-62.7,51.4-113.5,114.9-113.5c63.4,0,114.9,50.8,114.9,113.5C1806.5,733.3,1755.1,784.1,1691.6,784.1z"/>
</svg>
