<?xml version="1.0" encoding="utf-8"?>
<!-- Generator: Adobe Illustrator 27.1.1, SVG Export Plug-In . SVG Version: 6.00 Build 0)  -->
<svg version="1.1" id="Layer_1" xmlns="http://www.w3.org/2000/svg" xmlns:xlink="http://www.w3.org/1999/xlink" x="0px" y="0px"
	 viewBox="0 0 2500 2500" style="enable-background:new 0 0 2500 2500;" xml:space="preserve">
<style type="text/css">
	.st0{fill:#DE4C36;}
	.st1{fill:none;}
</style>
<path class="st0" d="M2270.3,1295.6l-925.9-925.8c-53.3-53.3-139.8-53.3-193.1,0L959,562l243.9,243.9
	c56.7-19.2,121.7-6.3,166.9,38.9c45.4,45.5,58.2,111,38.5,167.9l235.1,235.1c56.9-19.6,122.5-6.9,167.9,38.6
	c63.5,63.5,63.5,166.3,0,229.8c-63.5,63.5-166.3,63.5-229.9,0c-47.7-47.8-59.5-117.9-35.4-176.7l-219.2-219.2l0,576.9
	c15.9,7.9,30.4,18.2,43,30.7c63.5,63.5,63.5,166.3,0,229.8c-63.5,63.5-166.4,63.5-229.8,0c-63.5-63.5-63.5-166.4,0-229.8
	c15.2-15.2,33.3-27.3,53.2-35.5v-582.2c-19.9-8.1-38-20.2-53.2-35.5c-48.1-48-59.7-118.6-35-177.7L864.6,656.5l-634.9,634.8
	c-53.3,53.4-53.3,139.9,0,193.2l925.9,925.9c53.3,53.3,139.8,53.3,193.1,0l921.6-921.6C2323.7,1435.5,2323.7,1348.9,2270.3,1295.6"
	/>
<rect class="st0" width="862.2" height="2500"/>
<rect x="-264.8" y="-9.9" transform="matrix(0.748 -0.6637 0.6637 0.748 139.0944 767.3405)" class="st0" width="2689.7" height="420.8"/>
<rect x="1904.6" y="-311.7" class="st0" width="864" height="3099.1"/>
<rect x="1425.7" y="329.8" class="st0" width="2235.1" height="606.7"/>
<rect x="82.7" y="2026.7" class="st0" width="3831.7" height="1915.8"/>
<rect x="1735.6" y="1547.7" class="st0" width="1521.4" height="563.5"/>
<rect x="1369.3" y="378.5" class="st0" width="244.2" height="114.5"/>
<line class="st1" x1="855.9" y1="524.9" x2="960.2" y2="420.8"/>
<line class="st1" x1="856.3" y1="356.6" x2="960.2" y2="420.8"/>
<line class="st1" x1="674" y1="435.8" x2="674.5" y2="267.5"/>
<rect x="-114.5" y="-1626.4" class="st0" width="2507.5" height="2062.2"/>
</svg>
