<?xml version="1.0" encoding="utf-8"?>
<!-- Generator: Adobe Illustrator 27.1.1, SVG Export Plug-In . SVG Version: 6.00 Build 0)  -->
<svg version="1.1" id="Layer_1" xmlns="http://www.w3.org/2000/svg" xmlns:xlink="http://www.w3.org/1999/xlink" x="0px" y="0px"
	 viewBox="0 0 1024 1024" style="enable-background:new 0 0 1024 1024;" xml:space="preserve">
<style type="text/css">
	.st0{fill:#FFFFFF;stroke:#000000;stroke-miterlimit:10;}
</style>
<rect y="-51.2" class="st0" width="1017.3" height="1075.2"/>
<path d="M478.5-29c-2.2,0.2-9.2,0.9-15.5,1.4c-145.3,13.1-281.4,91.5-367.6,212c-48,67-78.7,143-90.3,223.5
	C1,436,0.5,444.3,0.5,482.4s0.5,46.4,4.6,74.5c27.8,192,164.5,353.4,349.9,413.2c33.2,10.7,68.2,18,108,22.4c15.5,1.7,82.5,1.7,98,0
	c68.7-7.6,126.9-24.6,184.3-53.9c8.8-4.5,10.5-5.7,9.3-6.7c-0.8-0.6-38.3-50.9-83.3-111.7l-81.8-110.5L487,558.1
	c-56.4-83.4-102.8-151.6-103.2-151.6c-0.4-0.1-0.8,67.3-1,149.6c-0.3,144.1-0.4,149.9-2.2,153.3c-2.6,4.9-4.6,6.9-8.8,9.1
	c-3.2,1.6-6,1.9-21.1,1.9h-17.3l-4.6-2.9c-3-1.9-5.2-4.4-6.7-7.3l-2.1-4.5l0.2-200.5l0.3-200.6l3.1-3.9c1.6-2.1,5-4.8,7.4-6.1
	c4.1-2,5.7-2.2,23-2.2c20.4,0,23.8,0.8,29.1,6.6c1.5,1.6,57,85.2,123.4,185.9S663.7,723,708.3,790.5l81,122.7l4.1-2.7
	c36.3-23.6,74.7-57.2,105.1-92.2c64.7-74.3,106.4-164.9,120.4-261.5c4.1-28.1,4.6-36.4,4.6-74.5s-0.5-46.4-4.6-74.5
	C991.1,215.8,854.4,54.4,669-5.4C636.3-16,601.5-23.3,562.5-27.7C552.9-28.7,486.8-29.8,478.5-29L478.5-29z M687.9,280.4
	c4.8,2.4,8.7,7,10.1,11.8c0.8,2.6,1,58.2,0.8,183.5l-0.3,179.8l-31.7-48.6L635,558.3V427.6c0-84.5,0.4-132,1-134.3
	c1.6-5.6,5.1-10,9.9-12.6c4.1-2.1,5.6-2.3,21.3-2.3C682,278.4,684.6,278.6,687.9,280.4L687.9,280.4z"/>
<rect y="-51.2" width="1024" height="288"/>
<rect y="0.5" width="276.8" height="1023.5"/>
<rect x="-19" y="863.7" width="1171.6" height="159.8"/>
<rect x="854.3" y="173.5" width="298.2" height="896.9"/>
<rect x="791" y="863.7" width="124.4" height="206.6"/>
<rect x="638.3" y="962.3" width="174.9" height="88.4"/>
<rect x="734.6" y="936.9" width="73.6" height="35.6"/>
</svg>
