<?xml version="1.0" encoding="utf-8"?>
<!-- Generator: Adobe Illustrator 27.1.1, SVG Export Plug-In . SVG Version: 6.00 Build 0)  -->
<svg version="1.1" id="Layer_1" xmlns="http://www.w3.org/2000/svg" xmlns:xlink="http://www.w3.org/1999/xlink" x="0px" y="0px"
	 viewBox="0 0 512 512" style="enable-background:new 0 0 512 512;" xml:space="preserve">
<style type="text/css">
	.st0{fill:#404137;}
	.st1{fill:#83CD29;}
</style>
<rect class="st0" width="512" height="512"/>
<g>
	<path class="st1" d="M256.1,448.2c-5.2,0-10.3-1.3-14.8-3.9l-47-27.8c-7-3.9-3.6-5.3-1.3-6.1c9.4-3.3,11.3-4,21.3-9.7
		c1.1-0.6,2.4-0.4,3.5,0.3l36.1,21.4c1.3,0.7,3.2,0.7,4.4,0L399.1,341c1.3-0.7,2.2-2.3,2.2-3.8V174.6c0-1.6-0.8-3.1-2.2-3.9
		L258.3,89.5c-1.3-0.8-3-0.8-4.3,0l-140.8,81.2c-1.4,0.8-2.2,2.3-2.2,3.8v162.6c0,1.6,0.8,3,2.2,3.8l38.6,22.3
		c20.9,10.5,33.7-1.9,33.7-14.3V188.5c0-2.3,1.8-4.1,4.1-4.1h17.8c2.2,0,4.1,1.8,4.1,4.1V349c0,27.9-15.2,44-41.7,44
		c-8.1,0-14.6,0-32.5-8.8l-37-21.3c-9.1-5.3-14.8-15.2-14.8-25.7V174.6c0-10.6,5.6-20.5,14.8-25.7l141-81.4c8.9-5,20.8-5,29.6,0
		l140.9,81.4c9.1,5.3,14.8,15.1,14.8,25.7v162.6c0,10.5-5.7,20.4-14.8,25.7l-140.9,81.3C266.4,446.8,261.3,448.2,256.1,448.2"/>
	<path class="st1" d="M299.6,336.2c-61.6,0-74.6-28.3-74.6-52c0-2.3,1.8-4.1,4.1-4.1h18.2c2,0,3.7,1.5,4,3.4
		c2.7,18.5,10.9,27.9,48.2,27.9c29.7,0,42.3-6.7,42.3-22.5c0-9.1-3.6-15.8-49.7-20.3c-38.6-3.8-62.4-12.3-62.4-43.2
		c0-28.4,24-45.3,64.1-45.3c45.1,0,67.5,15.7,70.3,49.3c0.1,1.2-0.3,2.3-1.1,3.1c-0.8,0.8-1.9,1.3-3,1.3h-18.3
		c-1.9,0-3.6-1.3-3.9-3.2c-4.4-19.5-15.1-25.7-44-25.7c-32.4,0-36.2,11.3-36.2,19.7c0,10.3,4.4,13.3,48.2,19
		c43.3,5.7,63.9,13.9,63.9,44.3c0,30.7-25.6,48.3-70.2,48.3"/>
</g>
</svg>
