<?xml version="1.0" encoding="utf-8"?>
<!-- Generator: Adobe Illustrator 27.1.1, SVG Export Plug-In . SVG Version: 6.00 Build 0)  -->
<svg version="1.1" id="Layer_1" xmlns="http://www.w3.org/2000/svg" xmlns:xlink="http://www.w3.org/1999/xlink" x="0px" y="0px"
	 viewBox="0 0 3183.7 3163" style="enable-background:new 0 0 3183.7 3163;" xml:space="preserve">
<style type="text/css">
	.st0{fill:#222222;}
	.st1{fill:#61DAFB;}
</style>
<rect x="11.1" y="-1119.4" class="st0" width="3176.4" height="4545.4"/>
<g>
	<path class="st1" d="M2510.4,1605.2c0-121.7-152.4-237-386.1-308.6c53.9-238.2,30-427.6-75.6-488.3c-24.3-14.2-52.8-21-83.9-21
		v83.5c17.2,0,31.1,3.4,42.7,9.7c50.9,29.2,73,140.4,55.8,283.5c-4.1,35.2-10.9,72.3-19.1,110.1c-73.4-18-153.5-31.8-237.8-40.8
		c-50.6-69.3-103-132.2-155.8-187.2c122.1-113.5,236.7-175.6,314.5-175.6V787c-103,0-237.8,73.4-374.1,200.7
		C1454.8,861.2,1320,788.5,1217,788.5V872c77.5,0,192.5,61.8,314.5,174.5c-52.4,55-104.8,117.6-154.6,186.9
		c-84.6,9-164.8,22.8-238.2,41.2c-8.6-37.4-15-73.8-19.5-108.6c-17.6-143,4.1-254.3,54.7-283.8c11.2-6.7,25.8-9.7,43.1-9.7v-83.5
		c-31.5,0-59.9,6.7-84.6,21c-105.2,60.7-128.8,249.8-74.5,487.2c-232.9,71.9-384.6,186.9-384.6,308.2c0,121.7,152.4,237,386.1,308.6
		c-53.9,238.2-30,427.6,75.6,488.3c24.3,14.2,52.8,21,84.3,21c103,0,237.8-73.4,374.1-200.7c136.3,126.6,271.1,199.2,374.1,199.2
		c31.5,0,59.9-6.7,84.6-21c105.2-60.7,128.8-249.8,74.5-487.2C2358.7,1841.9,2510.4,1726.5,2510.4,1605.2L2510.4,1605.2z
		 M2022.8,1355.5c-13.9,48.3-31.1,98.1-50.6,147.9c-15.4-30-31.5-59.9-49.1-89.9c-17.2-30-35.6-59.2-53.9-87.6
		C1922.5,1333.7,1973.8,1343.5,2022.8,1355.5L2022.8,1355.5z M1851.3,1754.3c-29.2,50.6-59.2,98.5-90.2,143
		c-55.8,4.9-112.3,7.5-169.3,7.5c-56.5,0-113.1-2.6-168.5-7.1c-31.1-44.6-61.4-92.1-90.6-142.3c-28.5-49.1-54.3-98.9-77.9-149
		c23.2-50.2,49.4-100.4,77.5-149.4c29.2-50.6,59.2-98.5,90.2-143c55.8-4.9,112.3-7.5,169.3-7.5c56.5,0,113.1,2.6,168.5,7.1
		c31.1,44.6,61.4,92.1,90.6,142.3c28.5,49.1,54.3,98.9,77.9,149C1905.2,1655,1879.4,1705.2,1851.3,1754.3L1851.3,1754.3z
		 M1972.3,1705.6c20.2,50.2,37.4,100.4,51.7,149c-49.1,12-100.7,22.1-154.3,30c18.3-28.8,36.7-58.4,53.9-88.7
		C1940.8,1765.9,1956.9,1735.5,1972.3,1705.6L1972.3,1705.6z M1592.6,2105.1c-34.8-35.9-69.6-76-104.1-119.8
		c33.7,1.5,68.2,2.6,103,2.6c35.2,0,70-0.7,104.1-2.6C1661.8,2029.1,1627,2069.2,1592.6,2105.1z M1314,1884.6
		c-53.2-7.9-104.5-17.6-153.5-29.6c13.9-48.3,31.1-98.1,50.6-147.9c15.4,30,31.5,59.9,49.1,89.9
		C1277.7,1826.9,1295.6,1856.1,1314,1884.6z M1590.7,1105.3c34.8,35.9,69.6,76,104.1,119.8c-33.7-1.5-68.2-2.6-103-2.6
		c-35.2,0-70,0.7-104.1,2.6C1521.4,1181.3,1556.3,1141.3,1590.7,1105.3z M1313.6,1325.9c-18.3,28.8-36.7,58.4-53.9,88.7
		c-17.2,30-33.3,59.9-48.7,89.9c-20.2-50.2-37.4-100.4-51.7-149C1208.4,1343.9,1260.1,1333.7,1313.6,1325.9L1313.6,1325.9z
		 M974.7,1794.7c-132.6-56.5-218.3-130.7-218.3-189.5c0-58.8,85.8-133.3,218.3-189.5c32.2-13.9,67.4-26.2,103.7-37.8
		c21.3,73.4,49.4,149.8,84.3,228c-34.4,77.9-62.2,153.9-83.1,226.9C1042.5,1821.3,1007.3,1808.6,974.7,1794.7L974.7,1794.7z
		 M1176.2,2329.8c-50.9-29.2-73-140.4-55.8-283.5c4.1-35.2,10.9-72.3,19.1-110.1c73.4,18,153.5,31.8,237.8,40.8
		c50.6,69.3,103,132.2,155.8,187.2c-122.1,113.5-236.7,175.6-314.5,175.6C1201.6,2339.5,1187.4,2336.2,1176.2,2329.8L1176.2,2329.8z
		 M2064.4,2044.5c17.6,143-4.1,254.3-54.7,283.8c-11.2,6.7-25.8,9.7-43.1,9.7c-77.5,0-192.5-61.8-314.5-174.5
		c52.4-55,104.8-117.6,154.6-186.9c84.6-9,164.8-22.8,238.2-41.2C2053.5,1973.3,2060.3,2009.6,2064.4,2044.5z M2208.6,1794.7
		c-32.2,13.9-67.4,26.2-103.7,37.8c-21.3-73.4-49.4-149.8-84.3-228c34.4-77.9,62.2-153.9,83.1-226.9c37.1,11.6,72.3,24.3,105.2,38.2
		c132.6,56.5,218.3,130.7,218.3,189.5C2426.9,1664,2341.1,1738.5,2208.6,1794.7L2208.6,1794.7z"/>
	<circle class="st1" cx="1591.5" cy="1605.2" r="171.1"/>
</g>
</svg>
