<?xml version="1.0" encoding="utf-8"?>
<!-- Generator: Adobe Illustrator 27.1.1, SVG Export Plug-In . SVG Version: 6.00 Build 0)  -->
<svg version="1.1" id="Layer_1" xmlns="http://www.w3.org/2000/svg" xmlns:xlink="http://www.w3.org/1999/xlink" x="0px" y="0px"
	 viewBox="0 0 512 512" style="enable-background:new 0 0 512 512;" xml:space="preserve">
<style type="text/css">
	.st0{fill:#161D2D;}
	.st1{fill:#06B6D4;}
</style>
<rect x="-45.2" y="-75" class="st0" width="602.5" height="662.1"/>
<path class="st1" d="M256,131.2c-53,0-86.1,26.5-99.3,79.4c19.9-26.5,43-36.4,69.5-29.8c15.1,3.8,25.9,14.7,37.9,26.9
	c19.5,19.8,42,42.6,91.3,42.6c53,0,86.1-26.5,99.3-79.4c-19.9,26.5-43,36.4-69.5,29.8c-15.1-3.8-25.9-14.7-37.9-26.9
	C327.8,154,305.2,131.2,256,131.2L256,131.2z M156.7,250.3c-53,0-86.1,26.5-99.3,79.4c19.9-26.5,43-36.4,69.5-29.8
	c15.1,3.8,25.9,14.7,37.9,26.9c19.5,19.8,42,42.6,91.3,42.6c53,0,86.1-26.5,99.3-79.4c-19.9,26.5-43,36.4-69.5,29.8
	c-15.1-3.8-25.9-14.7-37.9-26.9C228.5,273.2,205.9,250.3,156.7,250.3L156.7,250.3z"/>
</svg>
