<?xml version="1.0" encoding="utf-8"?>
<!-- Generator: Adobe Illustrator 27.1.1, SVG Export Plug-In . SVG Version: 6.00 Build 0)  -->
<svg version="1.1" id="Layer_1" xmlns="http://www.w3.org/2000/svg" xmlns:xlink="http://www.w3.org/1999/xlink" x="0px" y="0px"
	 viewBox="0 0 2500 2500" style="enable-background:new 0 0 2500 2500;" xml:space="preserve">
<style type="text/css">
	.st0{fill:#21759B;}
	.st1{fill:#FFFFFF;}
</style>
<rect class="st0" width="2500" height="2500"/>
<path class="st1" d="M1250,2187.2c-519.4,0-941.1-413.9-937.2-937.2c3.9-523.2,398.3-937.2,937.2-937.2
	c538.9,0,937.2,421.7,937.2,937.2S1769.4,2187.2,1250,2187.2z M1527.2,2042.7l-265.5-714.6l-249.9,730.2
	C1195.4,2101.3,1320.3,2113,1527.2,2042.7L1527.2,2042.7z M879.1,2003.7L480.8,914.2c-54.7,117.1-66.4,214.8-74.2,335.8
	C410.5,1570.2,590.1,1863,879.1,2003.7z M2089.6,1250c3.9-206.9-89.8-370.9-97.6-394.4c7.8,160.1-15.6,242.1-42.9,331.9
	l-273.4,784.9c343.6-207,410-515.5,417.8-722.4H2089.6L2089.6,1250z M1222.7,1214.9l-132.8-363.2l-97.6-7.8
	c-39-27.3-15.6-70.3,11.7-70.3c175.7,11.7,273.3,11.7,449.1,0c43,0,54.7,62.5,3.9,70.3l-93.7,7.8l304.5,898.1l144.5-492
	c7.8-214.7-50.8-238.2-128.9-394.4c-62.5-121.1,3.9-238.2,125-242.1c-97.7-93.7-296.8-210.9-558.4-214.8
	c-261.6-3.9-538.9,128.9-702.9,378.8l289-7.8c35.1,15.6,19.5,66.4,0,70.3l-101.5,7.8l304.6,913.7L1222.7,1214.9L1222.7,1214.9z"/>
</svg>
